{
  "accessors": [
    {
      "bufferView": 2,
      "componentType": 5126,
      "count": 65532,
      "max": [
        0.24724100530147552,
        0.07559999823570251,
        0.06932000070810318
      ],
      "min": [
        -0.11795400083065033,
        -0.14808900654315948,
        -0.42941901087760925
      ],
      "type": "VEC3"
    },
    {
      "bufferView": 2,
      "byteOffset": 786384,
      "componentType": 5126,
      "count": 65532,
      "max": [
        0.9999686479568481,
        0.999958872795105,
        0.9999974966049194
      ],
      "min": [
        -0.9999123215675354,
        -0.999964714050293,
        -0.9999997615814209
      ],
      "type": "VEC3"
    },
    {
      "bufferView": 3,
      "componentType": 5126,
      "count": 65532,
      "max": [
        0.9999987483024597,
        0.9999973773956299,
        1.0,
        1.0
      ],
      "min": [
        -0.9998717308044434,
        -0.9998944401741028,
        -0.9999626874923706,
        -1.0
      ],
      "type": "VEC4"
    },
    {
      "bufferView": 1,
      "componentType": 5126,
      "count": 65532,
      "max": [
        0.9996359944343567,
        0.9996349811553955
      ],
      "min": [
        0.0003640000068116933,
        0.0003650188446044922
      ],
      "type": "VEC2"
    },
    {
      "bufferView": 1,
      "byteOffset": 524256,
      "componentType": 5126,
      "count": 65532,
      "max": [
        0.9996359944343567,
        0.9996349811553955
      ],
      "min": [
        0.0003640000068116933,
        0.0003650188446044922
      ],
      "type": "VEC2"
    },
    {
      "bufferView": 1,
      "byteOffset": 1048512,
      "componentType": 5126,
      "count": 65532,
      "max": [
        0.9996359944343567,
        0.9996349811553955
      ],
      "min": [
        0.0003640000068116933,
        0.0003650188446044922
      ],
      "type": "VEC2"
    },
    {
      "bufferView": 1,
      "byteOffset": 1572768,
      "componentType": 5126,
      "count": 65532,
      "max": [
        0.9996359944343567,
        0.9996349811553955
      ],
      "min": [
        0.0003640000068116933,
        0.0003650188446044922
      ],
      "type": "VEC2"
    },
    {
      "bufferView": 0,
      "componentType": 5125,
      "count": 292641,
      "type": "SCALAR"
    },
    {
      "bufferView": 2,
      "byteOffset": 1572768,
      "componentType": 5126,
      "count": 65532,
      "max": [
        0.1369509994983673,
        0.12284599989652634,
        0.20184999704360962
      ],
      "min": [
        -0.20079100131988525,
        -0.13164600729942322,
        -0.4512079954147339
      ],
      "type": "VEC3"
    },
    {
      "bufferView": 2,
      "byteOffset": 2359152,
      "componentType": 5126,
      "count": 65532,
      "max": [
        0.9999977350234985,
        0.9999998807907104,
        0.9999980926513672
      ],
      "min": [
        -0.9999582767486572,
        -0.9999768733978271,
        -0.9999969005584717
      ],
      "type": "VEC3"
    },
    {
      "bufferView": 3,
      "byteOffset": 1048512,
      "componentType": 5126,
      "count": 65532,
      "max": [
        0.9999997615814209,
        0.999995231628418,
        0.9999997615814209,
        1.0
      ],
      "min": [
        -0.9999997615814209,
        -0.9999918341636658,
        -0.9999999403953552,
        -1.0
      ],
      "type": "VEC4"
    },
    {
      "bufferView": 1,
      "byteOffset": 2097024,
      "componentType": 5126,
      "count": 65532,
      "max": [
        0.9996359944343567,
        0.9996349811553955
      ],
      "min": [
        0.0003640000068116933,
        0.0003650188446044922
      ],
      "type": "VEC2"
    },
    {
      "bufferView": 1,
      "byteOffset": 2621280,
      "componentType": 5126,
      "count": 65532,
      "max": [
        0.9996359944343567,
        0.9996349811553955
      ],
      "min": [
        0.0003640000068116933,
        0.0003650188446044922
      ],
      "type": "VEC2"
    },
    {
      "bufferView": 1,
      "byteOffset": 3145536,
      "componentType": 5126,
      "count": 65532,
      "max": [
        0.9996359944343567,
        0.9996349811553955
      ],
      "min": [
        0.0003640000068116933,
        0.0003650188446044922
      ],
      "type": "VEC2"
    },
    {
      "bufferView": 1,
      "byteOffset": 3669792,
      "componentType": 5126,
      "count": 65532,
      "max": [
        0.9996359944343567,
        0.9996349811553955
      ],
      "min": [
        0.0003640000068116933,
        0.0003650188446044922
      ],
      "type": "VEC2"
    },
    {
      "bufferView": 0,
      "byteOffset": 1170564,
      "componentType": 5125,
      "count": 276489,
      "type": "SCALAR"
    },
    {
      "bufferView": 2,
      "byteOffset": 3145536,
      "componentType": 5126,
      "count": 65532,
      "max": [
        0.08371800184249878,
        0.1513269990682602,
        0.5518199801445007
      ],
      "min": [
        -0.2235340029001236,
        -0.13245800137519836,
        -0.5651749968528748
      ],
      "type": "VEC3"
    },
    {
      "bufferView": 2,
      "byteOffset": 3931920,
      "componentType": 5126,
      "count": 65532,
      "max": [
        0.9999997615814209,
        0.9999816417694092,
        0.9999762773513794
      ],
      "min": [
        -0.9999862909317017,
        -0.9999501705169678,
        -0.9999934434890747
      ],
      "type": "VEC3"
    },
    {
      "bufferView": 3,
      "byteOffset": 2097024,
      "componentType": 5126,
      "count": 65532,
      "max": [
        0.9999985694885254,
        0.9999973177909851,
        0.9999977946281433,
        1.0
      ],
      "min": [
        -0.9999969005584717,
        -0.9999978542327881,
        -0.9999908208847046,
        -1.0
      ],
      "type": "VEC4"
    },
    {
      "bufferView": 1,
      "byteOffset": 4194048,
      "componentType": 5126,
      "count": 65532,
      "max": [
        0.9996359944343567,
        0.9996349811553955
      ],
      "min": [
        0.0003640000068116933,
        0.0003650188446044922
      ],
      "type": "VEC2"
    },
    {
      "bufferView": 1,
      "byteOffset": 4718304,
      "componentType": 5126,
      "count": 65532,
      "max": [
        0.9996359944343567,
        0.9996349811553955
      ],
      "min": [
        0.0003640000068116933,
        0.0003650188446044922
      ],
      "type": "VEC2"
    },
    {
      "bufferView": 1,
      "byteOffset": 5242560,
      "componentType": 5126,
      "count": 65532,
      "max": [
        0.9996359944343567,
        0.9996349811553955
      ],
      "min": [
        0.0003640000068116933,
        0.0003650188446044922
      ],
      "type": "VEC2"
    },
    {
      "bufferView": 1,
      "byteOffset": 5766816,
      "componentType": 5126,
      "count": 65532,
      "max": [
        0.9996359944343567,
        0.9996349811553955
      ],
      "min": [
        0.0003640000068116933,
        0.0003650188446044922
      ],
      "type": "VEC2"
    },
    {
      "bufferView": 0,
      "byteOffset": 2276520,
      "componentType": 5125,
      "count": 276732,
      "type": "SCALAR"
    },
    {
      "bufferView": 2,
      "byteOffset": 4718304,
      "componentType": 5126,
      "count": 65532,
      "max": [
        -0.025422999635338783,
        0.09303700178861618,
        0.5531060099601746
      ],
      "min": [
        -0.24724100530147552,
        -0.1175910010933876,
        -0.24517099559307098
      ],
      "type": "VEC3"
    },
    {
      "bufferView": 2,
      "byteOffset": 5504688,
      "componentType": 5126,
      "count": 65532,
      "max": [
        0.9999676942825317,
        0.9999815225601196,
        0.9999939203262329
      ],
      "min": [
        -0.9999873638153076,
        -0.9999346137046814,
        -1.0
      ],
      "type": "VEC3"
    },
    {
      "bufferView": 3,
      "byteOffset": 3145536,
      "componentType": 5126,
      "count": 65532,
      "max": [
        0.9998499751091003,
        0.9999921321868896,
        0.999957263469696,
        1.0
      ],
      "min": [
        -0.999955415725708,
        -0.9999980926513672,
        -0.9999971985816956,
        -1.0
      ],
      "type": "VEC4"
    },
    {
      "bufferView": 1,
      "byteOffset": 6291072,
      "componentType": 5126,
      "count": 65532,
      "max": [
        0.9996359944343567,
        0.9996349811553955
      ],
      "min": [
        0.0003640000068116933,
        0.0003650188446044922
      ],
      "type": "VEC2"
    },
    {
      "bufferView": 1,
      "byteOffset": 6815328,
      "componentType": 5126,
      "count": 65532,
      "max": [
        0.9996359944343567,
        0.9996349811553955
      ],
      "min": [
        0.0003640000068116933,
        0.0003650188446044922
      ],
      "type": "VEC2"
    },
    {
      "bufferView": 1,
      "byteOffset": 7339584,
      "componentType": 5126,
      "count": 65532,
      "max": [
        0.9996359944343567,
        0.9996349811553955
      ],
      "min": [
        0.0003640000068116933,
        0.0003650188446044922
      ],
      "type": "VEC2"
    },
    {
      "bufferView": 1,
      "byteOffset": 7863840,
      "componentType": 5126,
      "count": 65532,
      "max": [
        0.9996359944343567,
        0.9996349811553955
      ],
      "min": [
        0.0003640000068116933,
        0.0003650188446044922
      ],
      "type": "VEC2"
    },
    {
      "bufferView": 0,
      "byteOffset": 3383448,
      "componentType": 5125,
      "count": 284475,
      "type": "SCALAR"
    },
    {
      "bufferView": 2,
      "byteOffset": 6291072,
      "componentType": 5126,
      "count": 65532,
      "max": [
        0.16924500465393066,
        0.13661399483680725,
        0.5563790202140808
      ],
      "min": [
        -0.13165399432182312,
        -0.11869099736213684,
        -0.0561549998819828
      ],
      "type": "VEC3"
    },
    {
      "bufferView": 2,
      "byteOffset": 7077456,
      "componentType": 5126,
      "count": 65532,
      "max": [
        0.9999806880950928,
        0.9999781847000122,
        0.999998927116394
      ],
      "min": [
        -0.9999985694885254,
        -0.9999841451644897,
        -0.9999978542327881
      ],
      "type": "VEC3"
    },
    {
      "bufferView": 3,
      "byteOffset": 4194048,
      "componentType": 5126,
      "count": 65532,
      "max": [
        0.9999601244926453,
        0.9999916553497314,
        0.9999948740005493,
        1.0
      ],
      "min": [
        -0.9999780058860779,
        -0.999998927116394,
        -1.0,
        -1.0
      ],
      "type": "VEC4"
    },
    {
      "bufferView": 1,
      "byteOffset": 8388096,
      "componentType": 5126,
      "count": 65532,
      "max": [
        0.9996359944343567,
        0.9996349811553955
      ],
      "min": [
        0.0003640000068116933,
        0.0003650188446044922
      ],
      "type": "VEC2"
    },
    {
      "bufferView": 1,
      "byteOffset": 8912352,
      "componentType": 5126,
      "count": 65532,
      "max": [
        0.9996359944343567,
        0.9996349811553955
      ],
      "min": [
        0.0003640000068116933,
        0.0003650188446044922
      ],
      "type": "VEC2"
    },
    {
      "bufferView": 1,
      "byteOffset": 9436608,
      "componentType": 5126,
      "count": 65532,
      "max": [
        0.9996359944343567,
        0.9996349811553955
      ],
      "min": [
        0.0003640000068116933,
        0.0003650188446044922
      ],
      "type": "VEC2"
    },
    {
      "bufferView": 1,
      "byteOffset": 9960864,
      "componentType": 5126,
      "count": 65532,
      "max": [
        0.9996359944343567,
        0.9996349811553955
      ],
      "min": [
        0.0003640000068116933,
        0.0003650188446044922
      ],
      "type": "VEC2"
    },
    {
      "bufferView": 0,
      "byteOffset": 4521348,
      "componentType": 5125,
      "count": 277041,
      "type": "SCALAR"
    },
    {
      "bufferView": 2,
      "byteOffset": 7863840,
      "componentType": 5126,
      "count": 21895,
      "max": [
        0.15300899744033813,
        0.07980699837207794,
        0.2707119882106781
      ],
      "min": [
        -0.22462399303913116,
        -0.12249000370502472,
        -0.34144601225852966
      ],
      "type": "VEC3"
    },
    {
      "bufferView": 2,
      "byteOffset": 8126580,
      "componentType": 5126,
      "count": 21895,
      "max": [
        0.9999405145645142,
        0.9999880790710449,
        0.9999537467956543
      ],
      "min": [
        -0.9999003410339355,
        -0.9999082088470459,
        -0.9999972581863403
      ],
      "type": "VEC3"
    },
    {
      "bufferView": 3,
      "byteOffset": 5242560,
      "componentType": 5126,
      "count": 21895,
      "max": [
        0.9999544620513916,
        0.9999958872795105,
        0.9999863505363464,
        1.0
      ],
      "min": [
        -0.9999027848243713,
        -0.9997279644012451,
        -0.9995829463005066,
        -1.0
      ],
      "type": "VEC4"
    },
    {
      "bufferView": 1,
      "byteOffset": 10485120,
      "componentType": 5126,
      "count": 21895,
      "max": [
        0.9996359944343567,
        0.9981769919395447
      ],
      "min": [
        0.0018210000125691295,
        0.0018230080604553223
      ],
      "type": "VEC2"
    },
    {
      "bufferView": 1,
      "byteOffset": 10660280,
      "componentType": 5126,
      "count": 21895,
      "max": [
        0.9996359944343567,
        0.9981769919395447
      ],
      "min": [
        0.0018210000125691295,
        0.0018230080604553223
      ],
      "type": "VEC2"
    },
    {
      "bufferView": 1,
      "byteOffset": 10835440,
      "componentType": 5126,
      "count": 21895,
      "max": [
        0.9996359944343567,
        0.9981769919395447
      ],
      "min": [
        0.0018210000125691295,
        0.0018230080604553223
      ],
      "type": "VEC2"
    },
    {
      "bufferView": 1,
      "byteOffset": 11010600,
      "componentType": 5126,
      "count": 21895,
      "max": [
        0.9996359944343567,
        0.9981769919395447
      ],
      "min": [
        0.0018210000125691295,
        0.0018230080604553223
      ],
      "type": "VEC2"
    },
    {
      "bufferView": 0,
      "byteOffset": 5629512,
      "componentType": 5125,
      "count": 92610,
      "type": "SCALAR"
    }
  ],
  "asset": {
    "extras": {
      "author": "4DigitalARTS (https://sketchfab.com/boardreklam)",
      "license": "CC-BY-4.0 (http://creativecommons.org/licenses/by/4.0/)",
      "source": "https://sketchfab.com/3d-models/dead-space-armor-8181aa4f8e5b404f80e07d19e7636500",
      "title": "Dead Space Armor"
    },
    "generator": "Sketchfab-16.68.0",
    "version": "2.0"
  },
  "bufferViews": [
    {
      "buffer": 0,
      "byteLength": 5999952,
      "name": "floatBufferViews",
      "target": 34963
    },
    {
      "buffer": 0,
      "byteLength": 11185760,
      "byteOffset": 5999952,
      "byteStride": 8,
      "name": "floatBufferViews",
      "target": 34962
    },
    {
      "buffer": 0,
      "byteLength": 8389320,
      "byteOffset": 17185712,
      "byteStride": 12,
      "name": "floatBufferViews",
      "target": 34962
    },
    {
      "buffer": 0,
      "byteLength": 5592880,
      "byteOffset": 25575032,
      "byteStride": 16,
      "name": "floatBufferViews",
      "target": 34962
    }
  ],
  "buffers": [
    {
      "byteLength": 31167912,
      "uri": "scene.bin"
    }
  ],
  "extensionsRequired": [
    "KHR_materials_pbrSpecularGlossiness"
  ],
  "extensionsUsed": [
    "KHR_materials_pbrSpecularGlossiness"
  ],
  "images": [
    {
      "uri": "textures/Material.001_diffuse.png"
    },
    {
      "uri": "textures/Material.001_specularGlossiness.png"
    },
    {
      "uri": "textures/Material.001_normal.png"
    }
  ],
  "materials": [
    {
      "doubleSided": true,
      "extensions": {
        "KHR_materials_pbrSpecularGlossiness": {
          "diffuseFactor": [
            0.7290688544160301,
            0.7290688544160301,
            0.7290688544160301,
            1.0
          ],
          "diffuseTexture": {
            "index": 0
          },
          "glossinessFactor": 1.0,
          "specularFactor": [
            0.5770035028105241,
            0.5770035028105241,
            0.5770035028105241
          ],
          "specularGlossinessTexture": {
            "index": 1,
            "texCoord": 1
          }
        }
      },
      "name": "Material.001",
      "normalTexture": {
        "index": 2,
        "texCoord": 2
      }
    }
  ],
  "meshes": [
    {
      "name": "Object_0",
      "primitives": [
        {
          "attributes": {
            "NORMAL": 1,
            "POSITION": 0,
            "TANGENT": 2,
            "TEXCOORD_0": 3,
            "TEXCOORD_1": 4,
            "TEXCOORD_2": 5,
            "TEXCOORD_3": 6
          },
          "indices": 7,
          "material": 0,
          "mode": 4
        }
      ]
    },
    {
      "name": "Object_1",
      "primitives": [
        {
          "attributes": {
            "NORMAL": 9,
            "POSITION": 8,
            "TANGENT": 10,
            "TEXCOORD_0": 11,
            "TEXCOORD_1": 12,
            "TEXCOORD_2": 13,
            "TEXCOORD_3": 14
          },
          "indices": 15,
          "material": 0,
          "mode": 4
        }
      ]
    },
    {
      "name": "Object_2",
      "primitives": [
        {
          "attributes": {
            "NORMAL": 17,
            "POSITION": 16,
            "TANGENT": 18,
            "TEXCOORD_0": 19,
            "TEXCOORD_1": 20,
            "TEXCOORD_2": 21,
            "TEXCOORD_3": 22
          },
          "indices": 23,
          "material": 0,
          "mode": 4
        }
      ]
    },
    {
      "name": "Object_3",
      "primitives": [
        {
          "attributes": {
            "NORMAL": 25,
            "POSITION": 24,
            "TANGENT": 26,
            "TEXCOORD_0": 27,
            "TEXCOORD_1": 28,
            "TEXCOORD_2": 29,
            "TEXCOORD_3": 30
          },
          "indices": 31,
          "material": 0,
          "mode": 4
        }
      ]
    },
    {
      "name": "Object_4",
      "primitives": [
        {
          "attributes": {
            "NORMAL": 33,
            "POSITION": 32,
            "TANGENT": 34,
            "TEXCOORD_0": 35,
            "TEXCOORD_1": 36,
            "TEXCOORD_2": 37,
            "TEXCOORD_3": 38
          },
          "indices": 39,
          "material": 0,
          "mode": 4
        }
      ]
    },
    {
      "name": "Object_5",
      "primitives": [
        {
          "attributes": {
            "NORMAL": 41,
            "POSITION": 40,
            "TANGENT": 42,
            "TEXCOORD_0": 43,
            "TEXCOORD_1": 44,
            "TEXCOORD_2": 45,
            "TEXCOORD_3": 46
          },
          "indices": 47,
          "material": 0,
          "mode": 4
        }
      ]
    }
  ],
  "nodes": [
    {
      "children": [
        1
      ],
      "matrix": [
        1.0,
        0.0,
        0.0,
        0.0,
        0.0,
        2.220446049250313e-16,
        -1.0,
        0.0,
        0.0,
        1.0,
        2.220446049250313e-16,
        0.0,
        0.0,
        0.0,
        0.0,
        1.0
      ],
      "name": "Sketchfab_model"
    },
    {
      "children": [
        2
      ],
      "name": "root"
    },
    {
      "children": [
        3
      ],
      "matrix": [
        1.0,
        0.0,
        0.0,
        0.0,
        0.0,
        2.220446049250313e-16,
        1.0,
        0.0,
        0.0,
        -1.0,
        2.220446049250313e-16,
        0.0,
        0.0,
        0.0,
        0.0,
        1.0
      ],
      "name": "GLTF_SceneRootNode"
    },
    {
      "children": [
        4,
        5,
        6,
        7,
        8,
        9
      ],
      "matrix": [
        1.0,
        0.0,
        0.0,
        0.0,
        0.0,
        0.0,
        1.0,
        0.0,
        0.0,
        -1.0,
        0.0,
        0.0,
        0.0,
        0.0,
        0.0,
        1.0
      ],
      "name": "texture_pbr_v128_0"
    },
    {
      "mesh": 0,
      "name": "Object_4"
    },
    {
      "mesh": 1,
      "name": "Object_5"
    },
    {
      "mesh": 2,
      "name": "Object_6"
    },
    {
      "mesh": 3,
      "name": "Object_7"
    },
    {
      "mesh": 4,
      "name": "Object_8"
    },
    {
      "mesh": 5,
      "name": "Object_9"
    }
  ],
  "samplers": [
    {
      "magFilter": 9729,
      "minFilter": 9987,
      "wrapS": 10497,
      "wrapT": 10497
    }
  ],
  "scene": 0,
  "scenes": [
    {
      "name": "Sketchfab_Scene",
      "nodes": [
        0
      ]
    }
  ],
  "textures": [
    {
      "sampler": 0,
      "source": 0
    },
    {
      "sampler": 0,
      "source": 1
    },
    {
      "sampler": 0,
      "source": 2
    }
  ]
}
