<?xml version="1.0" encoding="UTF-8" standalone="no"?>
<!-- Created with Inkscape (http://www.inkscape.org/) -->

<svg
   width="64.034737mm"
   height="25.222475mm"
   viewBox="0 0 64.034737 25.222475"
   version="1.1"
   id="svg1"
   xmlns="http://www.w3.org/2000/svg"
   xmlns:svg="http://www.w3.org/2000/svg">
  <defs
     id="defs1" />
  <g
     id="layer1"
     transform="translate(-64.387193,-89.690809)">
    <text
       xml:space="preserve"
       style="font-style:normal;font-variant:normal;font-weight:normal;font-stretch:normal;font-size:4.93889px;font-family:'Heiti SC';-inkscape-font-specification:'Heiti SC, Normal';font-variant-ligatures:normal;font-variant-caps:normal;font-variant-numeric:normal;font-variant-east-asian:normal;fill:#fafafa;fill-opacity:1;stroke-width:0.264583"
       x="86.199341"
       y="113.00279"
       id="text2"><tspan
         id="tspan15"
         x="86.199341"
         y="113.00279"
         dx="0 0 0 0 0 0 0 0 0">bluemetal engine</tspan></text>
    <path
       style="fill:#fafafa;fill-opacity:1;stroke-width:0.264583"
       d="m 16.224648,195.64589 0.734697,-30.4592 a 5.1657836,5.1657836 134.65606 0 1 4.977726,-5.03784 l 6.089201,-0.22005 a 4.4787332,4.4787332 40.418231 0 1 4.606193,3.9227 l 1.17382,9.43215 c 0.185813,1.49309 1.555616,2.75378 3.060105,2.75337 9.060591,-0.003 26.83629,-1.25004 39.746037,-1.80243 0.407638,-0.0174 0.744652,0.29982 0.752713,0.70795 l 0.106263,5.37998 a 6.4126451,6.4126451 136.72684 0 1 -6.924032,6.51876 l -34.1982,-2.74264 a 0.9886145,0.9886145 134.22511 0 0 -1.061984,1.0911 l 1.006121,9.3604 a 4.6379843,4.6379843 131.37617 0 1 -4.521359,5.13277 l -11.310542,0.21968 a 4.1572405,4.1572405 45.13454 0 1 -4.236759,-4.2567 z"
       id="path8"
       transform="matrix(0.28060009,-0.0265228,0.0265228,0.28060009,62.630311,45.568825)" />
    <path
       style="fill:#fafafa;fill-opacity:1;stroke-width:0.264583"
       d="m 8.5695999,212.68796 77.5293621,2.25111 -0.007,5.79238 c -19.618279,1.42443 -28.747578,12.94936 -25.057011,28.16485 h 12.237143 l 0.194241,8.1581 -45.348344,0.58117 a 0.55350253,0.55350253 47.857022 0 1 -0.557094,-0.61562 l 0.760868,-6.73207 a 2.3352548,2.3352548 137.8881 0 1 2.293089,-2.07283 l 9.800306,-0.11497 a 0.60030308,0.60030308 124.84805 0 0 0.558367,-0.80194 l -2.574847,-7.21833 a 0.68525338,0.68525338 34.241753 0 0 -0.667957,-0.45465 l -8.751415,0.28797 a 0.32970691,0.32970691 42.680283 0 1 -0.340169,-0.31368 l -0.158222,-3.28828 c -0.01094,-0.22729 -0.20387,-0.42379 -0.430764,-0.44111 -13.001696,-0.99289 -22.1077893,-7.2014 -19.9445105,-22.79189 0.03083,-0.22219 0.239737,-0.39672 0.4639574,-0.39021 z"
       id="path9"
       transform="matrix(0.28185079,0,0,0.28185079,62.192321,42.298485)" />
    <path
       style="fill:#2783de;fill-opacity:1;stroke-width:0.074573"
       d="m 71.740648,101.39315 -1.013619,-2.879982 0.763209,-0.0993 -1.041546,-5.66738 -3.4258,0.64742 2.207788,4.27636 -0.892976,0.20313 1.268947,3.473522 z"
       id="path10" />
    <path
       style="fill:#2783de;fill-opacity:1;stroke-width:0.074573"
       d="m 68.955454,101.16389 -2.397725,-3.305522 0.878323,-0.56293 z"
       id="path11" />
    <path
       style="fill:#2783de;fill-opacity:1;stroke-width:0.074573"
       d="m 79.703146,101.79747 2.342471,-3.344919 0.818668,0.64663 z"
       id="path11-0" />
    <path
       style="fill:#2783de;fill-opacity:1;stroke-width:0.074573"
       d="m 79.007986,101.8054 -0.813501,-0.0533 1.067283,-2.305559 -0.678466,-0.0106 0.234489,-2.72946 2.15821,0.43443 -0.817346,1.77719 0.89609,0.0137 z"
       id="path12" />
  </g>
</svg>
